/* XPM */
const char * p_xpm[] = {"28 50 2 1",
" 	c None",
".	c #000000",
"                            ",
"                            ",
"                            ",
"                            ",
"                            ",
"                            ",
"                            ",
"                            ",
"                            ",
"                            ",
"                            ",
"                            ",
"                            ",
"                            ",
"........................    ",
"........................    ",
"........................    ",
"........................    ",
"........            ....... ",
"........            ....... ",
"........            ....... ",
"........            ....... ",
"........            ....... ",
"........            ....... ",
"........            ....... ",
"........            ....... ",
"........            ....... ",
"........            ....... ",
"........            ....... ",
"........            ....... ",
"........................    ",
"........................    ",
"........................    ",
"........................    ",
"........                    ",
"........                    ",
"........                    ",
"........                    ",
"........                    ",
"........                    ",
"........                    ",
"                            ",
"                            ",
"                            ",
"                            ",
"                            ",
"                            ",
"                            ",
"                            ",
"                            "};
