/* XPM */
const char * z_xpm[] = {"28 50 2 1",
" 	c None",
".	c #000000",
"                            ",
"                            ",
"                            ",
"                            ",
"                            ",
"                            ",
"                            ",
"                            ",
"                            ",
"                            ",
"                            ",
"                            ",
"                            ",
"                            ",
"........................... ",
"........................... ",
"........................... ",
"........................... ",
"                ........... ",
"                ........... ",
"                ........... ",
"                ........... ",
"            ............    ",
"            ............    ",
"            ............    ",
"            ............    ",
"        ............        ",
"        ............        ",
"        ............        ",
"    ............            ",
"    ............            ",
"    ............            ",
"    ............            ",
"............                ",
"............                ",
"............                ",
"............                ",
"........................... ",
"........................... ",
"........................... ",
"........................... ",
"                            ",
"                            ",
"                            ",
"                            ",
"                            ",
"                            ",
"                            ",
"                            ",
"                            "};
