/* XPM */
const char * back_not_pressed_xpm[] = {
"70 70 72 1",
" 	c None",
".	c #1F212B",
"+	c #1F212C",
"@	c #1B1C25",
"#	c #181921",
"$	c #20212B",
"%	c #1B1D25",
"&	c #07080B",
"*	c #020202",
"=	c #15161D",
"-	c #1F212A",
";	c #1B1D26",
">	c #050608",
",	c #000000",
"'	c #010102",
")	c #16171E",
"!	c #010101",
"~	c #1F202A",
"{	c #1B1C26",
"]	c #060609",
"^	c #020203",
"/	c #171820",
"(	c #06070A",
"_	c #13141A",
":	c #040406",
"<	c #191A22",
"[	c #13141B",
"}	c #0D0E13",
"|	c #000001",
"1	c #030304",
"2	c #0F1015",
"3	c #07070B",
"4	c #13151B",
"5	c #191B23",
"6	c #010202",
"7	c #12141A",
"8	c #0E0E14",
"9	c #040405",
"0	c #0E0F14",
"a	c #030305",
"b	c #050609",
"c	c #101117",
"d	c #0E1015",
"e	c #030405",
"f	c #121319",
"g	c #040507",
"h	c #191A23",
"i	c #0F0F15",
"j	c #1D1E28",
"k	c #111218",
"l	c #1E202A",
"m	c #0E0F15",
"n	c #1E1F29",
"o	c #0F1016",
"p	c #12131A",
"q	c #0B0C11",
"r	c #101016",
"s	c #090A0E",
"t	c #14161C",
"u	c #0A0B10",
"v	c #090A0F",
"w	c #090B0F",
"x	c #040407",
"y	c #0A0C10",
"z	c #14161D",
"A	c #080A0E",
"B	c #0A0B0F",
"C	c #07070A",
"D	c #15161E",
"E	c #0A0A0E",
"F	c #1C1E27",
"G	c #1D1F29",
"                                                                      ",
"                                                                      ",
"                                                                      ",
"                                                                      ",
"                                                                      ",
"                                                                      ",
"                                                                      ",
"                                                                      ",
"                                            ..                        ",
"                                           +@#.                       ",
"                                          $%&*=-                      ",
"                                         $;>,,')-                     ",
"                                        $%&,,,,!=~                    ",
"                                       +{]!!,,,,^/.                   ",
"                                      +@(^_&,,,,:<.                   ",
"                                     $;(![}|,,,1<.                    ",
"                                    $%]^[2,,,,:<.                     ",
"                                   $;3!_},,,,1<.                      ",
"                                  $%>^42,,,,:5.                       ",
"                                 $%&678,,,,9<.                        ",
"                                $;>'40|,,,a5.                         ",
"                               $%3^70,,,,:<.                          ",
"                              $;]!4}|,,,1<.                           ",
"                             $%(^[2,,,,:<.                            ",
"                            $;(![},,,,1<.                             ",
"                           $%b,cd,,,,:<.                              ",
"                          $;&,,a,,,,a<.                               ",
"                         $;>,,,,,,,e5.                                ",
"                        $%&,,,,,,,:<.                                 ",
"                       $;>'fg,,,,1h.                                  ",
"                      $%(^7i,,,,:<.                                   ",
"                     $;(,7},,,,1<.                                    ",
"                    $%],,(,,,,:<.                                     ",
"                   $;3!0^,,,,1<.                                      ",
"                  .j],kd,,,,,/.                                       ",
"                   l[,9,,,,,,mn.                                      ",
"                    l[',,,,,,|in.                                     ",
"                     l7,,,,,,,,on.                                    ",
"                      l4!^c1,,,|0n.                                   ",
"                      $lp!q=g,,,,rn.                                  ",
"                        l4,st1,,,,0n.                                 ",
"                        $lp!u=:,,,,rn.                                ",
"                          l4,vt:,,,,mn.                               ",
"                           l7'w=a,,,|2n.                              ",
"                            l7,utx,,,,2n.                             ",
"                             l['s=1,,,|mn.                            ",
"                              lp,yzg,,,,rn.                           ",
"                               l4!At1,,,,0n.                          ",
"                               $lp!y=:,,,,rn.                         ",
"                                 l4,sta,,,,0n.                        ",
"                                 $l7'u=9,,,|on.                       ",
"                                   l[,Bt:,,,,in.                      ",
"                                    l7'v=1,,,|in.                     ",
"                                     l7,ytg,,,,on.                    ",
"                                      l4!s=^,,,|0n.                   ",
"                                      +lp,uC,,,,,D.                   ",
"                                        l4,,,,,,EF.                   ",
"                                        $lp!,,,sF.                    ",
"                                          l4,,BF.                     ",
"                                          $lpsF.                      ",
"                                            lG.                       ",
"                                             .                        ",
"                                                                      ",
"                                                                      ",
"                                                                      ",
"                                                                      ",
"                                                                      ",
"                                                                      ",
"                                                                      ",
"                                                                      "};
