/* XPM */
const char * back_pressed_xpm[] = {
"70 70 200 2",
"  	c None",
". 	c #1F212B",
"+ 	c #1F212C",
"@ 	c #4E282D",
"# 	c #6F2F30",
"$ 	c #22222C",
"% 	c #3E262D",
"& 	c #C44338",
"* 	c #E14B3C",
"= 	c #953733",
"- 	c #1D212B",
"; 	c #20212B",
"> 	c #41272D",
", 	c #CA4539",
"' 	c #E74C3C",
") 	c #8C3533",
"! 	c #26222B",
"~ 	c #45272D",
"{ 	c #E24B3C",
"] 	c #923733",
"^ 	c #19212B",
"/ 	c #3D262D",
"( 	c #E54B3C",
"_ 	c #E04A3B",
": 	c #22212B",
"< 	c #1E212C",
"[ 	c #4A282D",
"} 	c #C64439",
"| 	c #933834",
"1 	c #B54037",
"2 	c #E84C3C",
"3 	c #DC493B",
"4 	c #7E3231",
"5 	c #38262C",
"6 	c #C74438",
"7 	c #E54C3C",
"8 	c #8D3734",
"9 	c #A23B35",
"0 	c #E44B3C",
"a 	c #DF4A3B",
"b 	c #773131",
"c 	c #1C212B",
"d 	c #49282D",
"e 	c #903834",
"f 	c #983934",
"g 	c #E64C3C",
"h 	c #DC4A3B",
"i 	c #793131",
"j 	c #21212B",
"k 	c #3C262C",
"l 	c #C54438",
"m 	c #913834",
"n 	c #A33B35",
"o 	c #7C3231",
"p 	c #1B212B",
"q 	c #44272D",
"r 	c #C94539",
"s 	c #8C3734",
"t 	c #993934",
"u 	c #DD4A3B",
"v 	c #743031",
"w 	c #43272D",
"x 	c #E44C3C",
"y 	c #933934",
"z 	c #A13B35",
"A 	c #DE4A3B",
"B 	c #7F3231",
"C 	c #1E212B",
"D 	c #3D262C",
"E 	c #893734",
"F 	c #9D3A34",
"G 	c #723030",
"H 	c #49272D",
"I 	c #E34B3C",
"J 	c #943934",
"K 	c #C84438",
"L 	c #8B3734",
"M 	c #753031",
"N 	c #C64438",
"O 	c #7B3131",
"P 	c #3A262C",
"Q 	c #8F3834",
"R 	c #7A3131",
"S 	c #47272D",
"T 	c #C94538",
"U 	c #9E3B35",
"V 	c #9A3A35",
"W 	c #763031",
"X 	c #40262D",
"Y 	c #D3473A",
"Z 	c #733031",
"` 	c #9B3934",
" .	c #7D3231",
"..	c #A33C36",
"+.	c #783131",
"@.	c #BA4238",
"#.	c #AC3E36",
"$.	c #DB493B",
"%.	c #28232C",
"&.	c #C84439",
"*.	c #973934",
"=.	c #9C3B35",
"-.	c #E94C3C",
";.	c #24222C",
">.	c #A03A34",
",.	c #CE463A",
"'.	c #AE3E36",
").	c #2A232B",
"!.	c #993933",
"~.	c #B13F36",
"{.	c #2E232C",
"].	c #1B222B",
"^.	c #A03B34",
"/.	c #AA3D36",
"(.	c #29232C",
"_.	c #25222B",
":.	c #973833",
"<.	c #9C3A35",
"[.	c #B33F37",
"}.	c #27232C",
"|.	c #23222B",
"1.	c #A13B34",
"2.	c #BB4238",
"3.	c #6E3131",
"4.	c #D9483A",
"5.	c #30232C",
"6.	c #1E222B",
"7.	c #983933",
"8.	c #C14338",
"9.	c #733232",
"0.	c #DB493A",
"a.	c #21222C",
"b.	c #29232B",
"c.	c #9F3A34",
"d.	c #E24B3B",
"e.	c #BE4238",
"f.	c #6D3131",
"g.	c #AD3D36",
"h.	c #34242C",
"i.	c #18222B",
"j.	c #9C3933",
"k.	c #BD4238",
"l.	c #AD3E36",
"m.	c #20222C",
"n.	c #2B232B",
"o.	c #9B3933",
"p.	c #B03E36",
"q.	c #31232C",
"r.	c #19222B",
"s.	c #713131",
"t.	c #D8483A",
"u.	c #25232C",
"v.	c #28222B",
"w.	c #983833",
"x.	c #C34439",
"y.	c #703131",
"z.	c #B23F36",
"A.	c #2A232C",
"B.	c #1F222B",
"C.	c #2D232C",
"D.	c #21222B",
"E.	c #E34C3C",
"F.	c #C24338",
"G.	c #DC493A",
"H.	c #23222C",
"I.	c #BC4238",
"J.	c #DA493A",
"K.	c #AB3D36",
"L.	c #33242C",
"M.	c #1A222B",
"N.	c #9A3933",
"O.	c #BF4338",
"P.	c #AF3E36",
"Q.	c #1F222C",
"R.	c #9C3A34",
"S.	c #C04338",
"T.	c #DD493A",
"U.	c #9E3A34",
"V.	c #723132",
"W.	c #C34438",
"X.	c #6F3131",
"Y.	c #1C222B",
"Z.	c #BA4138",
"`.	c #24222B",
" +	c #723131",
".+	c #B33F36",
"++	c #26232C",
"@+	c #25222C",
"#+	c #BB4138",
"$+	c #B44037",
"%+	c #963734",
"&+	c #9A3934",
"*+	c #612B2F",
"=+	c #D4483A",
"-+	c #4F292E",
";+	c #D1473A",
">+	c #5D2B2F",
",+	c #53292E",
"'+	c #26222C",
")+	c #2E242D",
"                                                                                                                                            ",
"                                                                                                                                            ",
"                                                                                                                                            ",
"                                                                                                                                            ",
"                                                                                                                                            ",
"                                                                                                                                            ",
"                                                                                                                                            ",
"                                                                                                                                            ",
"                                                                                        . .                                                 ",
"                                                                                      + @ # $                                               ",
"                                                                                    . % & * = -                                             ",
"                                                                                  ; > , ' ' * ) !                                           ",
"                                                                                . ~ & ' ' ' ' { ] ^                                         ",
"                                                                              + / , ( ( ' ' ' ' _ ) :                                       ",
"                                                                            < [ } { | 1 2 ' ' ' 3 4 :                                       ",
"                                                                          . 5 6 7 8 9 0 ' ' ' a b c                                         ",
"                                                                        ; d 6 { e f g ' ' ' h i j                                           ",
"                                                                      . k l 7 m n 7 ' ' ' a o p                                             ",
"                                                                    ; q r { s t 7 ' ' ' u v j                                               ",
"                                                                  . w & x y z g ' ' ' A B C                                                 ",
"                                                                ; D r x E F 0 ' ' ' A G ;                                                   ",
"                                                              . H & I J F ' ' ' ' u B ;                                                     ",
"                                                            . 5 K 7 L z 0 ' ' ' a M -                                                       ",
"                                                          . [ N { m t g ' ' ' h O j                                                         ",
"                                                        . P l 7 Q n 7 ' ' ' a R p                                                           ",
"                                                      ; S T 2 U V g ' ' ' h W j                                                             ",
"                                                    . X & g ' Y ' ' ' ' A 4 -                                                               ",
"                                                  ; X , ' ' ' ' ' ' ' u G ;                                                                 ",
"                                                . S & 2 2 ' ' ' ' ' u B .                                                                   ",
"                                              . P T x | , ' ' ' ' A Z C                                                                     ",
"                                            . [ l { | ` ' ' ' ' h  .j                                                                       ",
"                                          . 5 N ' Q ..0 ' ' ' a +.c                                                                         ",
"                                        ; H K ' 2 @.g ' ' ' h +.j                                                                           ",
"                                      . k & 7 #.$.2 ' ' ' A  .c                                                                             ",
"                                    . %.&.2 *.=.g ' ' ' -.B ;                                                                               ",
"                                      ;.>.0 ,.' ' ' ' ' 2 '.$ C                                                                             ",
"                                        ).!.I ' ' ' ' ' ' 7 ~.{..                                                                           ",
"                                        ; ].^.I ' ' 2 ' ' ' 7 /.(.C                                                                         ",
"                                            _.:.I _ <.A ' ' ' 7 [.}..                                                                       ",
"                                            ; |.1.{ 2.3.4.' ' ' 7 /.5.C                                                                     ",
"                                                6.7.x 8.9.0.' ' ' 7 ~.a..                                                                   ",
"                                                ; b.c.d.e.f.0.' ' ' 7 g.h..                                                                 ",
"                                                    i.j.x k.9.4.' ' ' g l.m.C                                                               ",
"                                                    ; n.o.d.8.3.u ' ' ' 7 p.q..                                                             ",
"                                                      ; r.c.x @.s.t.' ' ' 7 /.u.C                                                           ",
"                                                          v.w.{ x.y.u ' ' ' 7 z.A..                                                         ",
"                                                          ; B.1.I @.3.t.' ' ' 7 /.C.C                                                       ",
"                                                              D.:.E.F.9.G.' ' ' 7 z.H..                                                     ",
"                                                              ; ! >.d.I.3.J.' ' ' 7 K.L..                                                   ",
"                                                                  M.N.x O.9.J.' ' ' 7 P.Q..                                                 ",
"                                                                  ; n.R.d.S.3.T.' ' ' 7 P.L..                                               ",
"                                                                    ; i.U.x 2.V.t.' ' ' 7 K.H.C                                             ",
"                                                                        ).!.{ W.X.u ' ' ' 7 z.C..                                           ",
"                                                                        ; Y.1.I Z.X.t.' ' ' 7 /.A.C                                         ",
"                                                                            `.:.I x. +u ' ' ' 7 .+++.                                       ",
"                                                                            + @+n I #+$+2 ' ' ' 0 %+|.                                      ",
"                                                                                B.&+x 2 ' ' ' ' Y *+j                                       ",
"                                                                                ; b.U.d.' ' ' =+-+C                                         ",
"                                                                                    i.R.I ' ;+>+C                                           ",
"                                                                                    ; n.o.;+,+.                                             ",
"                                                                                      + '+)+C                                               ",
"                                                                                          .                                                 ",
"                                                                                                                                            ",
"                                                                                                                                            ",
"                                                                                                                                            ",
"                                                                                                                                            ",
"                                                                                                                                            ",
"                                                                                                                                            ",
"                                                                                                                                            ",
"                                                                                                                                            "};
