/* XPM */
const char * front_pressed_xpm[] = {
"70 70 185 2",
"  	c None",
". 	c #1F212B",
"+ 	c #20212B",
"@ 	c #1F212C",
"# 	c #43262D",
"$ 	c #703030",
"% 	c #28222C",
"& 	c #1E212B",
"* 	c #30242C",
"= 	c #BD4238",
"- 	c #E24B3C",
"; 	c #9F3A34",
"> 	c #19222B",
", 	c #3B252D",
"' 	c #C24338",
") 	c #E64C3C",
"! 	c #E74C3C",
"~ 	c #E24B3B",
"{ 	c #9B3933",
"] 	c #2B232B",
"^ 	c #37252C",
"/ 	c #BB4137",
"( 	c #E34B3C",
"_ 	c #18222B",
": 	c #27232C",
"< 	c #C14238",
"[ 	c #E44B3C",
"} 	c #A13A35",
"| 	c #2A222C",
"1 	c #25232C",
"2 	c #B13E36",
"3 	c #E54C3C",
"4 	c #E04A3B",
"5 	c #873633",
"6 	c #C14338",
"7 	c #993834",
"8 	c #1E222B",
"9 	c #30232C",
"0 	c #AA3D36",
"a 	c #D9483A",
"b 	c #6E3131",
"c 	c #BB4238",
"d 	c #A13B34",
"e 	c #22222B",
"f 	c #B33F37",
"g 	c #DD4A3B",
"h 	c #713131",
"i 	c #C34439",
"j 	c #973833",
"k 	c #26222B",
"l 	c #28232C",
"m 	c #D8483A",
"n 	c #703131",
"o 	c #BA4138",
"p 	c #E34C3C",
"q 	c #A03A34",
"r 	c #1B222B",
"s 	c #2F232C",
"t 	c #B13F36",
"u 	c #6F3131",
"v 	c #C24438",
"w 	c #993933",
"x 	c #2A232B",
"y 	c #21222C",
"z 	c #AC3D36",
"A 	c #723232",
"B 	c #BC4238",
"C 	c #E44C3C",
"D 	c #9D3A34",
"E 	c #33242C",
"F 	c #AE3E36",
"G 	c #DC493A",
"H 	c #BF4338",
"I 	c #20222C",
"J 	c #B03E36",
"K 	c #DA493A",
"L 	c #733232",
"M 	c #32242C",
"N 	c #AB3D36",
"O 	c #A03B34",
"P 	c #25222B",
"Q 	c #24232C",
"R 	c #B23F36",
"S 	c #23222B",
"T 	c #2B232C",
"U 	c #2C232C",
"V 	c #983933",
"W 	c #29232B",
"X 	c #9C3933",
"Y 	c #BE4238",
"Z 	c #DB493A",
"` 	c #6D3131",
" .	c #28222B",
"..	c #22222C",
"+.	c #743232",
"@.	c #CA4639",
"#.	c #983833",
"$.	c #1F222B",
"%.	c #2E232C",
"&.	c #DA493B",
"*.	c #D6483A",
"=.	c #21222B",
"-.	c #29232C",
";.	c #E84C3C",
">.	c #1A222B",
",.	c #C64338",
"'.	c #C94639",
").	c #D5483A",
"!.	c #923733",
"~.	c #592A2E",
"{.	c #D4473A",
"].	c #C94539",
"^.	c #763332",
"/.	c #D7483A",
"(.	c #702F30",
"_.	c #22212B",
":.	c #4C282E",
"<.	c #D3473A",
"[.	c #E14A3B",
"}.	c #DF4A3B",
"|.	c #D8493A",
"1.	c #5F2C2E",
"2.	c #5B2B2E",
"3.	c #D1473A",
"4.	c #B64037",
"5.	c #682E2F",
"6.	c #B94137",
"7.	c #703232",
"8.	c #DB493B",
"9.	c #D9493A",
"0.	c #652D2F",
"a.	c #1D212B",
"b.	c #C84539",
"c.	c #622D2F",
"d.	c #51292E",
"e.	c #CF463A",
"f.	c #D9493B",
"g.	c #6A2E2F",
"h.	c #53292E",
"i.	c #D4483A",
"j.	c #5E2C2E",
"k.	c #572A2E",
"l.	c #6C2E2F",
"m.	c #4D282E",
"n.	c #D3483A",
"o.	c #5B2A2E",
"p.	c #D0463A",
"q.	c #753332",
"r.	c #4B282E",
"s.	c #BA4137",
"t.	c #6F3132",
"u.	c #DC4A3B",
"v.	c #D2473A",
"w.	c #C04237",
"x.	c #4E292E",
"y.	c #B84037",
"z.	c #562A2E",
"A.	c #DE4A3B",
"B.	c #54292E",
"C.	c #50292E",
"D.	c #5D2C2E",
"E.	c #5A2A2E",
"F.	c #6B2E2F",
"G.	c #BC4137",
"H.	c #602C2E",
"I.	c #BF4237",
"J.	c #672D2F",
"K.	c #D0473A",
"L.	c #B94037",
"M.	c #6F3232",
"N.	c #662D2F",
"O.	c #28242C",
"P.	c #CD453A",
"Q.	c #9C3B35",
"R.	c #D7483B",
"S.	c #642C2F",
"T.	c #8E3633",
"U.	c #E94C3C",
"V.	c #6C2E30",
"W.	c #8F3633",
"X.	c #E14B3B",
"Y.	c #19212B",
"Z.	c #933733",
"`.	c #8B3533",
" +	c #2F252D",
"                                                                                                                                            ",
"                                                                                                                                            ",
"                                                                                                                                            ",
"                                                                                                                                            ",
"                                                                                                                                            ",
"                                                                                                                                            ",
"                                                                                                                                            ",
"                                                                                                                                            ",
"                                              . . +                                                                                         ",
"                                            @ # $ %                                                                                         ",
"                                          & * = - ; > +                                                                                     ",
"                                        . , ' ) ! ~ { ] +                                                                                   ",
"                                      & ^ / ) ! ! ! ( { _                                                                                   ",
"                                    . : < ) ! ! ! ! [ - } | @                                                                               ",
"                                    . 1 2 3 ! ! ! 4 5 6 3 7 8                                                                               ",
"                                      & 9 0 3 ! ! ! a b c - d e +                                                                           ",
"                                        . : f 3 ! ! ! g h i ( j k                                                                           ",
"                                          & l 0 3 ! ! ! m n o p q r +                                                                       ",
"                                            . s t 3 ! ! ! g u v - w x                                                                       ",
"                                              & y z 3 ! ! ! m A B C D _                                                                     ",
"                                                . E F 3 ! ! ! G b H ~ D x +                                                                 ",
"                                                  . I J 3 ! ! ! K L H C w r                                                                 ",
"                                                    & M N 3 ! ! ! K b B - O P +                                                             ",
"                                                      . Q R 3 ! ! ! G A v p j S                                                             ",
"                                                        & T 0 3 ! ! ! m u o ( d 8 +                                                         ",
"                                                          . U R 3 ! ! ! g n i - V W                                                         ",
"                                                            & Q N 3 ! ! ! m h c C ; _ +                                                     ",
"                                                              . M J 3 ! ! ! g b 6 ~ X ] +                                                   ",
"                                                                & I F 3 ! ! ! a L Y C { >                                                   ",
"                                                                  . E z 3 ! ! ! Z ` = ~ ;  .+                                               ",
"                                                                    . ..t 3 ! ! ! Z +.@.[ #.$.                                              ",
"                                                                      & %.0 3 ! ! ! &.*.! ( d =.+                                           ",
"                                                                        . -.f 3 ! ! ! ! ! ! ( j k                                           ",
"                                                                          & : 0 3 ! ! ! ! ! ;.( q >.+                                       ",
"                                                                            @ * ,.! ! ! ! ) '.).( !.S                                       ",
"                                                                            & ~.{.! ! ! ;.].^.&./.(._.                                      ",
"                                                                          & :.<.! ! ! ! 3 [.}.|.1..                                         ",
"                                                                        & 2.3.! ! ! ;.6 4.! *.5..                                           ",
"                                                                      & :.3.! ! ! ) 6.7.8.9.0.a.                                            ",
"                                                                    . ~.<.! ! ! ! b.L g *.c..                                               ",
"                                                                  & d.e.! ! ! ! ! 3.f.|.g.&                                                 ",
"                                                                . h.i.! ! ! ! ! ! ! /.j..                                                   ",
"                                                              & k.e.! ! ! ;.! ! ! /.l..                                                     ",
"                                                            . m.n.! ! ! ) '.&.! |.j..                                                       ",
"                                                          & o.p.! ! ! ;.= q.8.*.g..                                                         ",
"                                                        & r.3.! ! ! ) s.t.u.9.c.&                                                           ",
"                                                      . o.v.! ! ! ! w.+.g *.0..                                                             ",
"                                                    & x.p.! ! ! ! y.7.&.9.5.a.                                                              ",
"                                                  . z.n.! ! ! ! 6 A A.*.1..                                                                 ",
"                                                & B.e.! ! ! ! y.A f.m l..                                                                   ",
"                                              . C.n.! ! ! ) w.7.A.|.D..                                                                     ",
"                                            & E.e.! ! ! ;./ +.&.*.F..                                                                       ",
"                                          & :.v.! ! ! ) G.t.u.9.H.&                                                                         ",
"                                        . 2.3.! ! ! ! I.+.u.*.J..                                                                           ",
"                                      & :.K.! ! ! ! L.M.&.9.N.a.                                                                            ",
"                                    . O.P.! ! ! ! 4 Q.A.R.S..                                                                               ",
"                                      e T.( ! ! ! ! U.|.V.&                                                                                 ",
"                                        k W.X.! ! ! /.D..                                                                                   ",
"                                          Y.Z.- ;./.l..                                                                                     ",
"                                            P `.n.j..                                                                                       ",
"                                              S  +.                                                                                         ",
"                                                .                                                                                           ",
"                                                                                                                                            ",
"                                                                                                                                            ",
"                                                                                                                                            ",
"                                                                                                                                            ",
"                                                                                                                                            ",
"                                                                                                                                            ",
"                                                                                                                                            ",
"                                                                                                                                            "};
