/* XPM */
const char * front_not_pressed_xpm[] = {
"70 70 84 1",
" 	c None",
".	c #1F212B",
"+	c #20212B",
"@	c #1F212C",
"#	c #1D1F28",
"$	c #171821",
"%	c #1E202A",
"&	c #0D0E13",
"*	c #000000",
"=	c #111218",
"-	c #0C0D12",
";	c #010101",
">	c #111319",
",	c #0E0E14",
"'	c #121319",
")	c #20212C",
"!	c #1D1F29",
"~	c #000001",
"{	c #1E1F29",
"]	c #0F0F15",
"^	c #101117",
"/	c #0A0B0F",
"(	c #12131A",
"_	c #040406",
":	c #14161C",
"<	c #0B0D12",
"[	c #020203",
"}	c #14151C",
"|	c #0F1015",
"1	c #0A0B10",
"2	c #101016",
"3	c #030405",
"4	c #0B0C11",
"5	c #030304",
"6	c #15161C",
"7	c #040405",
"8	c #010001",
"9	c #010102",
"0	c #020303",
"a	c #07080B",
"b	c #12141A",
"c	c #050507",
"d	c #101116",
"e	c #040507",
"f	c #1C1D26",
"g	c #09090D",
"h	c #06060A",
"i	c #16171F",
"j	c #1F212A",
"k	c #1C1E27",
"l	c #08090D",
"m	c #020202",
"n	c #171920",
"o	c #090A0E",
"p	c #06070B",
"q	c #0B0B10",
"r	c #020304",
"s	c #16181F",
"t	c #14161D",
"u	c #060609",
"v	c #171820",
"w	c #040506",
"x	c #15161D",
"y	c #050508",
"z	c #020204",
"A	c #0A0A0F",
"B	c #050608",
"C	c #06070A",
"D	c #08080C",
"E	c #08090C",
"F	c #030305",
"G	c #1C1E26",
"H	c #07080C",
"I	c #050609",
"J	c #09090E",
"K	c #07070A",
"L	c #0A0A0E",
"M	c #07070B",
"N	c #161820",
"O	c #0F1016",
"P	c #13131A",
"Q	c #13141B",
"R	c #14141B",
"S	c #1B1C26",
"                                                                      ",
"                                                                      ",
"                                                                      ",
"                                                                      ",
"                                                                      ",
"                                                                      ",
"                                                                      ",
"                                                                      ",
"                       ..+                                            ",
"                      @#$%@                                           ",
"                     .#&*=%+                                          ",
"                    .#-**;>%+                                         ",
"                   .#,*****'%)                                        ",
"                  .!-*****~;=%@                                       ",
"                  .{]****;^/*(%)                                      ",
"                   .{^****_:<*=%+                                     ",
"                    .{]~***[:/;(%)                                    ",
"                     .{^****_}<*=%+                                   ",
"                      .{|;***[:1;>%+                                  ",
"                       .{2****3}4*>%)                                 ",
"                        .{2;***564;=%+                                ",
"                         .{|****5}1*(%)                               ",
"                          .{^****7:<;=%+                              ",
"                           .{]****[}/8(%)                             ",
"                            .{^****_}<*=%+                            ",
"                             .{|;***[:1;'%+                           ",
"                              .{2****_}4*>%)                          ",
"                               .{2;***5649=%+                         ",
"                                .{|****5}1*(%)                        ",
"                                 .{^****3:<;=%+                       ",
"                                  .{]****0}a*b%)                      ",
"                                   .{^****_c**=%+                     ",
"                                    .{];******;'%+                    ",
"                                     .{d********>%+                   ",
"                                      @{-*****_e;(%                   ",
"                                      @fg****7:h[ij                   ",
"                                     .kl*****m_9n.                    ",
"                                    .fo****pq*rs.                     ",
"                                   .ko****ltu;vj                      ",
"                                  .kl****wxyzv.                       ",
"                                 .kA*****BC9sj                        ",
"                                .kD*******[n.                         ",
"                               .kA*******[s.                          ",
"                              .kE****_F*9n.                           ",
"                             .Go****HtIzs.                            ",
"                            .kJ****DxI;vj                             ",
"                           .Gg****Kxyrv.                              ",
"                          .kL****lxC9sj                               ",
"                         .kD****Cxe[n.                                ",
"                        .kA****lxCms.                                 ",
"                       .kD****Mxcmn.                                  ",
"                      .GL****DxC[s.                                   ",
"                     .kg****DxI;v.                                    ",
"                    .Gg****MxBrN.                                     ",
"                   .ko****gxC;sj                                      ",
"                  .#J****9Oe[v.                                       ",
"                   %P******ms.                                        ",
"                    %Q;***mn.                                         ",
"                    .%(;*[s.                                          ",
"                      %Rmn.                                           ",
"                      @%S.                                            ",
"                        .                                             ",
"                                                                      ",
"                                                                      ",
"                                                                      ",
"                                                                      ",
"                                                                      ",
"                                                                      ",
"                                                                      ",
"                                                                      "};
