/* XPM */
const char * pause_not_pressed_xpm[] = {
"70 70 48 1",
" 	c None",
".	c #1F212B",
"+	c #20222B",
"@	c #1E202A",
"#	c #1D1F29",
"$	c #1E202B",
"%	c #1E1F29",
"&	c #111319",
"*	c #000000",
"=	c #13141B",
"-	c #040506",
";	c #1C1E28",
">	c #101118",
",	c #010101",
"'	c #12131A",
")	c #020203",
"!	c #06060A",
"~	c #0F1117",
"{	c #14161D",
"]	c #030305",
"^	c #010202",
"/	c #040407",
"(	c #171821",
"_	c #010102",
":	c #030406",
"<	c #171820",
"[	c #07080C",
"}	c #11131A",
"|	c #07080D",
"1	c #05060A",
"2	c #0F1017",
"3	c #040508",
"4	c #0C0E14",
"5	c #12141B",
"6	c #020304",
"7	c #000001",
"8	c #15171F",
"9	c #13141C",
"0	c #0C0D13",
"a	c #101117",
"b	c #15161D",
"c	c #06070B",
"d	c #16181F",
"e	c #1F222B",
"f	c #0C0D12",
"g	c #06070A",
"h	c #08090D",
"i	c #1D1F28",
"                                                                      ",
"                                                                      ",
"                                                                      ",
"                                                                      ",
"                                                                      ",
"                                                                      ",
"                                                                      ",
"                                                                      ",
"                                                                      ",
"                                                                      ",
"                  ..........             ...........                  ",
"                +@##########@$          .%##########.                 ",
"                .&**********=.          .-**********;.                ",
"                .>********,*'.          .)*******,**;.                ",
"                .>*******!~*'.          .)*******{]*;.                ",
"                .>*******^/*'.          .)*******(]*;.                ",
"                .>*******_:*'.          .)*******<]*;.                ",
"                .>*******[}*'.          .)*******<]*;.                ",
"                .>*******|=*'.          .)*******<]*;.                ",
"                .>*******|=*'.          .)*******<]*;.                ",
"                .>*******12*'.          .)*******<]*;.                ",
"                .>**********'.          .)*******<]*;.                ",
"                .>*******34*'.          .)*******<]*;.                ",
"                .>*******|=*'.          .)*******<]*;.                ",
"                .>*******|=*'.          .)*******<]*;.                ",
"                .>*******|=*'.          .)*******<]*;.                ",
"                .>*******|=*'.          .)*******<]*;.                ",
"                .>*******|=*'.          .)*******<]*;.                ",
"                .>*******|=*'.          .)*******<]*;.                ",
"                .>*******|=*'.          .)*******<]*;.                ",
"                .>*******|=*'.          .)*******<]*;.                ",
"                .>*******|=*'.          .)*******<]*;.                ",
"                .>*******|=*'.          .)*******<]*;.                ",
"                .>*******|=*'.          .)*******<]*;.                ",
"                .>*******|=*'.          .)*******<]*;.                ",
"                .>*******|=*'.          .)*******<]*;.                ",
"                .>*******|=*'.          .)*******<]*;.                ",
"                .>*******|=*'.          .)*******<]*;.                ",
"                .>*******|=*'.          .)*******<]*;.                ",
"                .>*******|=*'.          .)*******<]*;.                ",
"                .>*******|=*'.          .)*******<]*;.                ",
"                .>*******|=*'.          .)*******<]*;.                ",
"                .>*******|=*'.          .)*******(]*;.                ",
"                .>*******|=*'.          .)*******56*;.                ",
"                .>*******|=*'.          .)**********;.                ",
"                .>*******|=*'.          .)**********;.                ",
"                .>*******|=*'.          .)**********;.                ",
"                .>*******|=*'.          .)**********;.                ",
"                .>*******|=*'.          .)*******/7*;.                ",
"                .>*******|=*'.          .)*******8]*;.                ",
"                .>*******|=*'.          .)*******<]*;.                ",
"                .>*******|=*'.          .)*******(]*;.                ",
"                .>*******|=*'.          .)*******96*;.                ",
"                .>*******|=*'.          .)**********;.                ",
"                .>*******|=*'.          .)*******~)*;.                ",
"                .>*******30*'.          .)*******~)*;.                ",
"                .a**********'.          .)**********;.                ",
"                .bccccccccccde          .fgcccccccchie                ",
"                 ............           ...........e.                 ",
"                                                                      ",
"                                                                      ",
"                                                                      ",
"                                                                      ",
"                                                                      ",
"                                                                      ",
"                                                                      ",
"                                                                      ",
"                                                                      ",
"                                                                      ",
"                                                                      "};
