/* XPM */
const char * pause_pressed_xpm[] = {
"70 70 73 1",
" 	c None",
".	c #1F212B",
"+	c #1F222B",
"@	c #39242C",
"#	c #52272D",
"$	c #53272D",
"%	c #37242C",
"&	c #1E202B",
"*	c #1E212B",
"=	c #45262C",
"-	c #4D262D",
";	c #27222B",
">	c #18212B",
",	c #AB3D35",
"'	c #E84C3C",
")	c #E94D3C",
"!	c #E74C3C",
"~	c #A23A34",
"{	c #1C212B",
"]	c #12202B",
"^	c #D1473A",
"/	c #E04B3C",
"(	c #59292D",
"_	c #16202B",
":	c #BD4036",
"<	c #E64C3C",
"[	c #E54C3C",
"}	c #B43E35",
"|	c #1B212B",
"1	c #0E202B",
"2	c #E34B3B",
"3	c #E54B3C",
"4	c #632A2E",
"5	c #D6473A",
"6	c #B23E36",
"7	c #9A3833",
"8	c #E04A3B",
"9	c #E34B3C",
"0	c #DC493B",
"a	c #993632",
"b	c #E44B3C",
"c	c #DD493B",
"d	c #B13D35",
"e	c #D7483A",
"f	c #B73F36",
"g	c #E94C3C",
"h	c #DA483A",
"i	c #BF4137",
"j	c #A33A34",
"k	c #E14A3B",
"l	c #993733",
"m	c #A03934",
"n	c #E24B3B",
"o	c #DA493A",
"p	c #C14237",
"q	c #BE4036",
"r	c #B53E35",
"s	c #E44B3B",
"t	c #1A212B",
"u	c #8F3633",
"v	c #D9483A",
"w	c #873432",
"x	c #1D212B",
"y	c #17202B",
"z	c #B44037",
"A	c #C84439",
"B	c #4C272D",
"C	c #14202B",
"D	c #001F2B",
"E	c #00202B",
"F	c #15212B",
"G	c #0A202B",
"H	c #01202B",
"                                                                      ",
"                                                                      ",
"                                                                      ",
"                                                                      ",
"                                                                      ",
"                                                                      ",
"                                                                      ",
"                                                                      ",
"                                                                      ",
"                                                                      ",
"                  ..........             ...........                  ",
"                +@#$$$$$$$$#%&          *=$$$$$$$$$-;                 ",
"                >,'))))))))!~{          ]^)))))))))/(.                ",
"                _:!!!!!!!<[!}|          12!!!!!!!3!)4.                ",
"                _:!!!!!!!56!}|          12!!!!!!!78)4.                ",
"                _:!!!!!!!90!}|          12!!!!!!!a8)4.                ",
"                _:!!!!!!!bc!}|          12!!!!!!!a8)4.                ",
"                _:!!!!!!!5d!}|          12!!!!!!!a8)4.                ",
"                _:!!!!!!!5d!}|          12!!!!!!!a8)4.                ",
"                _:!!!!!!!5d!}|          12!!!!!!!a8)4.                ",
"                _:!!!!!!!ef!}|          12!!!!!!!a8)4.                ",
"                _:!!!!!!!'g!}|          12!!!!!!!a8)4.                ",
"                _:!!!!!!!hi!}|          12!!!!!!!a8)4.                ",
"                _:!!!!!!!5d!}|          12!!!!!!!a8)4.                ",
"                _:!!!!!!!5d!}|          12!!!!!!!a8)4.                ",
"                _:!!!!!!!5d!}|          12!!!!!!!a8)4.                ",
"                _:!!!!!!!5d!}|          12!!!!!!!a8)4.                ",
"                _:!!!!!!!5d!}|          12!!!!!!!a8)4.                ",
"                _:!!!!!!!5d!}|          12!!!!!!!a8)4.                ",
"                _:!!!!!!!5d!}|          12!!!!!!!a8)4.                ",
"                _:!!!!!!!5d!}|          12!!!!!!!a8)4.                ",
"                _:!!!!!!!5d!}|          12!!!!!!!a8)4.                ",
"                _:!!!!!!!5d!}|          12!!!!!!!a8)4.                ",
"                _:!!!!!!!5d!}|          12!!!!!!!a8)4.                ",
"                _:!!!!!!!5d!}|          12!!!!!!!a8)4.                ",
"                _:!!!!!!!5d!}|          12!!!!!!!a8)4.                ",
"                _:!!!!!!!5d!}|          12!!!!!!!a8)4.                ",
"                _:!!!!!!!5d!}|          12!!!!!!!a8)4.                ",
"                _:!!!!!!!5d!}|          12!!!!!!!a8)4.                ",
"                _:!!!!!!!5d!}|          12!!!!!!!a8)4.                ",
"                _:!!!!!!!5d!}|          12!!!!!!!a8)4.                ",
"                _:!!!!!!!5d!}|          12!!!!!!!a8)4.                ",
"                _:!!!!!!!5d!}|          12!!!!!!!a8)4.                ",
"                _:!!!!!!!5d!}|          12!!!!!!!jk)4.                ",
"                _:!!!!!!!5d!}|          12!!!!!!!'!)4.                ",
"                _:!!!!!!!5d!}|          12!!!!!!!!!)4.                ",
"                _:!!!!!!!5d!}|          12!!!!!!!!!)4.                ",
"                _:!!!!!!!5d!}|          12!!!!!!!!!)4.                ",
"                _:!!!!!!!5d!}|          12!!!!!!!0<)4.                ",
"                _:!!!!!!!5d!}|          12!!!!!!!l8)4.                ",
"                _:!!!!!!!5d!}|          12!!!!!!!a8)4.                ",
"                _:!!!!!!!5d!}|          12!!!!!!!a8)4.                ",
"                _:!!!!!!!5d!}|          12!!!!!!!mk)4.                ",
"                _:!!!!!!!5d!}|          12!!!!!!!g!)4.                ",
"                _:!!!!!!!5d!}|          12!!!!!!!6n)4.                ",
"                _:!!!!!!!op!}|          12!!!!!!!6n)4.                ",
"                _q!!!!!!!!'!r|          1s!!!!!!!'!)4.                ",
"                tuevvvvvvvv5wx          yzhvvvvvvvvAB+                ",
"                 CDDDDDDDDDEF           .GDDDDDDDDDH{                 ",
"                                                                      ",
"                                                                      ",
"                                                                      ",
"                                                                      ",
"                                                                      ",
"                                                                      ",
"                                                                      ",
"                                                                      ",
"                                                                      ",
"                                                                      ",
"                                                                      "};
