/* XPM */
const char * RightAnswer_xpm[] = {
"67 61 4 1",
" 	c None",
".	c #23D820",
"+	c #000000",
"@	c #FFFFFF",
"       .....................................................       ",
"     .........................................................     ",
"   .............................................................   ",
"  ...............................................................  ",
"  ...............................................................  ",
" ................................................................. ",
" ....................................................++++......... ",
"...................................................++++++++........",
"..................................................++++++++++.......",
".................................................++++++++++++......",
"................................................++++++++++++++.....",
"...............................................++++++++++++++++....",
"..............................................++++++++@@++++++++...",
".............................................++++++++@@@@+++++++...",
"............................................++++++++@@@@@@++++++...",
"...........................................++++++++@@@@@@@@+++++...",
"..........................................++++++++@@@@@@@@@+++++...",
".........................................++++++++@@@@@@@@@++++++...",
"........................................++++++++@@@@@@@@@+++++++...",
".......................................++++++++@@@@@@@@@+++++++....",
"......................................++++++++@@@@@@@@@+++++++.....",
".....................................++++++++@@@@@@@@@+++++++......",
"....................................++++++++@@@@@@@@@+++++++.......",
"..........++++.....................++++++++@@@@@@@@@+++++++........",
"........++++++++..................++++++++@@@@@@@@@+++++++.........",
".......++++++++++................++++++++@@@@@@@@@+++++++..........",
"......++++++++++++..............++++++++@@@@@@@@@+++++++...........",
".....++++++++++++++............++++++++@@@@@@@@@+++++++............",
"....++++++++++++++++..........++++++++@@@@@@@@@+++++++.............",
"...++++++++@@++++++++........++++++++@@@@@@@@@+++++++..............",
"...+++++++@@@@++++++++......++++++++@@@@@@@@@+++++++...............",
"...++++++@@@@@@++++++++....++++++++@@@@@@@@@+++++++................",
"...+++++@@@@@@@@++++++++..++++++++@@@@@@@@@+++++++.................",
"...+++++@@@@@@@@@++++++++++++++++@@@@@@@@@+++++++..................",
"...++++++@@@@@@@@@++++++++++++++@@@@@@@@@+++++++...................",
"...+++++++@@@@@@@@@++++++++++++@@@@@@@@@+++++++....................",
"....+++++++@@@@@@@@@++++++++++@@@@@@@@@+++++++.....................",
".....+++++++@@@@@@@@@++++++++@@@@@@@@@+++++++......................",
"......+++++++@@@@@@@@@++++++@@@@@@@@@+++++++.......................",
".......+++++++@@@@@@@@@++++@@@@@@@@@+++++++........................",
"........+++++++@@@@@@@@@@@@@@@@@@@@+++++++.........................",
".........+++++++@@@@@@@@@@@@@@@@@@+++++++..........................",
"..........+++++++@@@@@@@@@@@@@@@@+++++++...........................",
"...........+++++++@@@@@@@@@@@@@@+++++++............................",
"............+++++++@@@@@@@@@@@@+++++++.............................",
".............+++++++@@@@@@@@@@+++++++..............................",
"..............+++++++@@@@@@@@+++++++...............................",
"...............+++++++@@@@@@+++++++................................",
"................+++++++@@@@+++++++.................................",
".................+++++++@@+++++++..................................",
"..................++++++++++++++...................................",
"...................++++++++++++....................................",
"....................++++++++++.....................................",
".....................++++++++......................................",
" .....................++++++...................................... ",
" ................................................................. ",
"  ...............................................................  ",
"  ...............................................................  ",
"   .............................................................   ",
"     .........................................................     ",
"       .....................................................       "};
