/* XPM */
const char * WrongAnswer_xpm[] = {
"67 61 4 1",
" 	c None",
".	c #D82020",
"+	c #000000",
"@	c #FFFFFF",
"       .....................................................       ",
"     .........................................................     ",
"   .............................................................   ",
"  .........+++++++...............................+++++++.........  ",
"  ........+++++++++.............................+++++++++........  ",
" ........+++++++++++...........................+++++++++++........ ",
" .......+++++++++++++.........................+++++++++++++....... ",
".......+++++++++++++++.......................+++++++++++++++.......",
"......+++++++++++++++++.....................+++++++++++++++++......",
"......++++++++@@++++++++...................++++++++@@++++++++......",
"......+++++++@@@@++++++++.................++++++++@@@@+++++++......",
"......++++++@@@@@@++++++++...............++++++++@@@@@@++++++......",
"......++++++@@@@@@@++++++++.............++++++++@@@@@@@++++++......",
"......+++++++@@@@@@@++++++++...........++++++++@@@@@@@+++++++......",
"......++++++++@@@@@@@++++++++.........++++++++@@@@@@@++++++++......",
".......++++++++@@@@@@@++++++++.......++++++++@@@@@@@++++++++.......",
"........++++++++@@@@@@@++++++++.....++++++++@@@@@@@++++++++........",
".........++++++++@@@@@@@++++++++...++++++++@@@@@@@++++++++.........",
"..........++++++++@@@@@@@++++++++.++++++++@@@@@@@++++++++..........",
"...........++++++++@@@@@@@+++++++++++++++@@@@@@@++++++++...........",
"............++++++++@@@@@@@+++++++++++++@@@@@@@++++++++............",
".............++++++++@@@@@@@+++++++++++@@@@@@@++++++++.............",
"..............++++++++@@@@@@@+++++++++@@@@@@@++++++++..............",
"...............++++++++@@@@@@@+++++++@@@@@@@++++++++...............",
"................++++++++@@@@@@@+++++@@@@@@@++++++++................",
".................++++++++@@@@@@@@+@@@@@@@@++++++++.................",
"..................++++++++@@@@@@@@@@@@@@@++++++++..................",
"...................++++++++@@@@@@@@@@@@@++++++++...................",
"....................++++++++@@@@@@@@@@@++++++++....................",
".....................+++++++@@@@@@@@@@@+++++++.....................",
"......................+++++++@@@@@@@@@+++++++......................",
".....................+++++++@@@@@@@@@@@+++++++.....................",
"....................++++++++@@@@@@@@@@@++++++++....................",
"...................++++++++@@@@@@@@@@@@@++++++++...................",
"..................++++++++@@@@@@@@@@@@@@@++++++++..................",
".................++++++++@@@@@@@@+@@@@@@@@++++++++.................",
"................++++++++@@@@@@@+++++@@@@@@@++++++++................",
"...............++++++++@@@@@@@+++++++@@@@@@@++++++++...............",
"..............++++++++@@@@@@@+++++++++@@@@@@@++++++++..............",
".............++++++++@@@@@@@+++++++++++@@@@@@@++++++++.............",
"............++++++++@@@@@@@+++++++++++++@@@@@@@++++++++............",
"...........++++++++@@@@@@@+++++++++++++++@@@@@@@++++++++...........",
"..........++++++++@@@@@@@++++++++.++++++++@@@@@@@++++++++..........",
".........++++++++@@@@@@@++++++++...++++++++@@@@@@@++++++++.........",
"........++++++++@@@@@@@++++++++.....++++++++@@@@@@@++++++++........",
".......++++++++@@@@@@@++++++++.......++++++++@@@@@@@++++++++.......",
"......++++++++@@@@@@@++++++++.........++++++++@@@@@@@++++++++......",
"......+++++++@@@@@@@++++++++...........++++++++@@@@@@@+++++++......",
"......++++++@@@@@@@++++++++.............++++++++@@@@@@@++++++......",
"......++++++@@@@@@++++++++...............++++++++@@@@@@++++++......",
"......+++++++@@@@++++++++.................++++++++@@@@+++++++......",
"......++++++++@@++++++++...................++++++++@@++++++++......",
"......+++++++++++++++++.....................+++++++++++++++++......",
".......+++++++++++++++.......................+++++++++++++++.......",
" .......+++++++++++++.........................+++++++++++++....... ",
" ........+++++++++++...........................+++++++++++........ ",
"  ........+++++++++.............................+++++++++........  ",
"  .........+++++++...............................+++++++.........  ",
"   .............................................................   ",
"     .........................................................     ",
"       .....................................................       "};
