/* XPM */
const char * nW2_xpm[] = {
"35 61 2 1",
" 	c None",
".	c #FFFFFF",
"                                   ",
"                                   ",
"                                   ",
"                                   ",
"                                   ",
"                                   ",
"                                   ",
"                                   ",
"                                   ",
"                                   ",
"                                   ",
"                                   ",
"                                   ",
"                                   ",
"                                   ",
"                                   ",
"                                   ",
"     .........................     ",
"     .........................     ",
"     .........................     ",
"     .........................     ",
"     .........................     ",
"     .........................     ",
"..........               ..........",
"..........               ..........",
"..........               ..........",
"..........               ..........",
"..........               ..........",
"                    ...............",
"                    ...............",
"                    ...............",
"                    ...............",
"                    ...............",
"          ....................     ",
"          ....................     ",
"          ....................     ",
"          ....................     ",
"     ....................          ",
"     ....................          ",
"     ....................          ",
"     ....................          ",
"     ....................          ",
"     ....................          ",
"...............                    ",
"...............                    ",
"...............                    ",
"...............                    ",
"...................................",
"...................................",
"...................................",
"...................................",
"...................................",
"                                   ",
"                                   ",
"                                   ",
"                                   ",
"                                   ",
"                                   ",
"                                   ",
"                                   ",
"                                   "};
