/* XPM */
const char * nW8_xpm[] = {
"35 61 2 1",
" 	c None",
".	c #FFFFFF",
"                                   ",
"                                   ",
"                                   ",
"                                   ",
"                                   ",
"                                   ",
"                                   ",
"                                   ",
"                                   ",
"                                   ",
"                                   ",
"                                   ",
"                                   ",
"                                   ",
"                                   ",
"                                   ",
"                                   ",
"     ....................          ",
"     ....................          ",
"     ....................          ",
"     ....................          ",
"     ....................          ",
"..........               .....     ",
"..........               .....     ",
"..........               .....     ",
"..........               .....     ",
"..........               .....     ",
"..........               .....     ",
"...............          .....     ",
"...............          .....     ",
"...............          .....     ",
"...............          .....     ",
"     ....................          ",
"     ....................          ",
"     ....................          ",
"     ....................          ",
"     ....................          ",
"     ..............................",
".....          ....................",
".....          ....................",
".....          ....................",
".....          ....................",
".....                    ..........",
".....                    ..........",
".....                    ..........",
".....                    ..........",
".....                    ..........",
"..............................     ",
"     .........................     ",
"     .........................     ",
"     .........................     ",
"     .........................     ",
"                                   ",
"                                   ",
"                                   ",
"                                   ",
"                                   ",
"                                   ",
"                                   ",
"                                   ",
"                                   "};
