/* XPM */
const char * nW9_xpm[] = {
"35 61 2 1",
" 	c None",
".	c #FFFFFF",
"                                   ",
"                                   ",
"                                   ",
"                                   ",
"                                   ",
"                                   ",
"                                   ",
"                                   ",
"                                   ",
"                                   ",
"                                   ",
"                                   ",
"                                   ",
"                                   ",
"                                   ",
"                                   ",
"                                   ",
"     .........................     ",
"     .........................     ",
"     .........................     ",
"     .........................     ",
"     .........................     ",
"..........               ..........",
"..........               ..........",
"..........               ..........",
"..........               ..........",
"..........               ..........",
"..........               ..........",
"..........               ..........",
"..........               ..........",
"..........               ..........",
"..........               ..........",
"     .....               ..........",
"     ..............................",
"     ..............................",
"     ..............................",
"     ..............................",
"     ..............................",
"                         ..........",
"                         ..........",
"                         ..........",
"                         ..........",
"                    ..........     ",
"                    ..........     ",
"                    ..........     ",
"                    ..........     ",
"                    ..........     ",
"     ....................          ",
"     ....................          ",
"     ....................          ",
"     ....................          ",
"     ....................          ",
"                                   ",
"                                   ",
"                                   ",
"                                   ",
"                                   ",
"                                   ",
"                                   ",
"                                   ",
"                                   "};
