/* XPM */
const char * n6_xpm[] = {
"27 51 2 1",
" 	c None",
".	c #000000",
"                           ",
"                           ",
"                           ",
"                           ",
"                           ",
"                           ",
"                           ",
"                           ",
"                           ",
"                           ",
"                           ",
"                           ",
"                           ",
"       ..............      ",
"       ..............      ",
"       ..............      ",
"       ..............      ",
"   ........                ",
"   ........                ",
"   ........                ",
".......                    ",
".......                    ",
".......                    ",
".....................      ",
".....................      ",
".....................      ",
".....................      ",
".......           .......  ",
".......           .......  ",
".......           .......  ",
".......           .......  ",
".......           .......  ",
".......           .......  ",
".......           .......  ",
"    ..................     ",
"    ..................     ",
"    ..................     ",
"    ..................     ",
"                           ",
"                           ",
"                           ",
"                           ",
"                           ",
"                           ",
"                           ",
"                           ",
"                           ",
"                           ",
"                           ",
"                           ",
"                           "};
