/* XPM */
const char * eraser_pressed_xpm[] = {
"100 70 235 2",
"  	c None",
". 	c #000000",
"+ 	c #080808",
"@ 	c #292C2D",
"# 	c #323536",
"$ 	c #151616",
"% 	c #171919",
"& 	c #889194",
"* 	c #D3E1E6",
"= 	c #DCEAEF",
"- 	c #DBE9EE",
"; 	c #ACB7BB",
"> 	c #3C3F41",
", 	c #2C2F30",
"' 	c #C7D4D9",
") 	c #6B7274",
"! 	c #2A2D2E",
"~ 	c #CCD9DE",
"{ 	c #777F81",
"] 	c #2A2C2D",
"^ 	c #282A2A",
"/ 	c #C2CACC",
"( 	c #D9E5E9",
"_ 	c #C3CACC",
": 	c #D1D8DB",
"< 	c #D1D9DC",
"[ 	c #71787B",
"} 	c #131314",
"| 	c #AEB4B6",
"1 	c #2E210C",
"2 	c #825D22",
"3 	c #020100",
"4 	c #141515",
"5 	c #B0B6B9",
"6 	c #2B1F0B",
"7 	c #D29737",
"8 	c #E2A23B",
"9 	c #946A27",
"0 	c #040301",
"a 	c #767E80",
"b 	c #D39737",
"c 	c #8F6625",
"d 	c #8E6625",
"e 	c #D6E3E9",
"f 	c #6E7578",
"g 	c #D5E3E7",
"h 	c #2E393E",
"i 	c #47555B",
"j 	c #4E5354",
"k 	c #D8E5E9",
"l 	c #C6D3D8",
"m 	c #070707",
"n 	c #DAE7EC",
"o 	c #C9D8DE",
"p 	c #1B2327",
"q 	c #48565C",
"r 	c #404445",
"s 	c #030201",
"t 	c #D4DCE0",
"u 	c #C7D6DB",
"v 	c #7D8E95",
"w 	c #686E70",
"x 	c #DAE6EB",
"y 	c #D8E5EA",
"z 	c #313C41",
"A 	c #6D7D84",
"B 	c #D7E1E5",
"C 	c #323E43",
"D 	c #2A353A",
"E 	c #494E50",
"F 	c #2D200C",
"G 	c #D5DFE3",
"H 	c #C5D4DA",
"I 	c #181F22",
"J 	c #D3E2E6",
"K 	c #D1DEE3",
"L 	c #0D0E0E",
"M 	c #76541F",
"N 	c #B4BCBF",
"O 	c #C3D1D7",
"P 	c #182023",
"Q 	c #293338",
"R 	c #D2E1E6",
"S 	c #010100",
"T 	c #805B21",
"U 	c #B9C5CA",
"V 	c #C5D4D9",
"W 	c #929B9E",
"X 	c #020202",
"Y 	c #212222",
"Z 	c #1C1D1D",
"` 	c #161717",
" .	c #949EA1",
"..	c #040505",
"+.	c #1B1C1C",
"@.	c #BBC1C4",
"#.	c #B8BFC1",
"$.	c #886224",
"%.	c #DD9E3A",
"&.	c #281B0B",
"*.	c #B5BBBE",
"=.	c #B9BFC2",
"-.	c #1D1E1E",
";.	c #18130B",
">.	c #C28B33",
",.	c #DE9F3A",
"'.	c #412B12",
").	c #141516",
"!.	c #B7C3C7",
"~.	c #111212",
"{.	c #AFB4B7",
"].	c #333535",
"^.	c #B5B9B7",
"/.	c #DEB065",
"(.	c #3D2811",
"_.	c #22150A",
":.	c #7A8184",
"<.	c #0C0D0D",
"[.	c #A8AEB0",
"}.	c #D2D6D4",
"|.	c #E1A13B",
"1.	c #3E2811",
"2.	c #321F0F",
"3.	c #B5733B",
"4.	c #754A27",
"5.	c #080809",
"6.	c #9EA3A6",
"7.	c #D9AC63",
"8.	c #463212",
"9.	c #79561F",
"0.	c #301E0E",
"a.	c #B4723B",
"b.	c #BA763E",
"c.	c #7A4D29",
"d.	c #020101",
"e.	c #050505",
"f.	c #959A9C",
"g.	c #CCD3D6",
"h.	c #414242",
"i.	c #7D502A",
"j.	c #040201",
"k.	c #030303",
"l.	c #909597",
"m.	c #979C9E",
"n.	c #75797A",
"o.	c #A2A8AA",
"p.	c #BCC2C5",
"q.	c #878C8E",
"r.	c #484A4C",
"s.	c #626567",
"t.	c #010101",
"u.	c #7D8183",
"v.	c #707476",
"w.	c #A1A6A9",
"x.	c #909497",
"y.	c #616465",
"z.	c #363839",
"A.	c #818587",
"B.	c #696C6E",
"C.	c #2F3031",
"D.	c #5D6162",
"E.	c #535657",
"F.	c #D0D7DA",
"G.	c #484A4B",
"H.	c #1E1E1F",
"I.	c #8A8F91",
"J.	c #484B4C",
"K.	c #CFD6D9",
"L.	c #2B2C2D",
"M.	c #CAD1D4",
"N.	c #E2A13B",
"O.	c #3E2911",
"P.	c #B5723C",
"Q.	c #A6ABAD",
"R.	c #765120",
"S.	c #010000",
"T.	c #303132",
"U.	c #E0A13B",
"V.	c #C3803E",
"W.	c #694221",
"X.	c #C5823D",
"Y.	c #B9763E",
"Z.	c #868B8D",
"`.	c #C7843D",
" +	c #888D8F",
".+	c #724C22",
"++	c #6E7273",
"@+	c #694323",
"#+	c #192429",
"$+	c #1E2B32",
"%+	c #393A3B",
"&+	c #1C1D1E",
"*+	c #19252A",
"=+	c #1C2A31",
"-+	c #020303",
";+	c #B2B8BA",
">+	c #D6E0E4",
",+	c #C2CED3",
"'+	c #1C1E1F",
")+	c #050708",
"!+	c #010202",
"~+	c #3C3E3F",
"{+	c #050809",
"]+	c #0A0F12",
"^+	c #0F1519",
"/+	c #121A20",
"(+	c #070A0C",
"_+	c #C0C6C9",
":+	c #7F878A",
"<+	c #0A0E11",
"[+	c #0E1417",
"}+	c #131B20",
"|+	c #06090A",
"1+	c #0B1114",
"2+	c #0B0C0C",
"3+	c #585B5C",
"4+	c #93989A",
"5+	c #C1C8CB",
"6+	c #C8D1D5",
"7+	c #CDDADF",
"8+	c #919A9D",
"9+	c #0A0E10",
"0+	c #040607",
"a+	c #06090B",
"b+	c #0F161A",
"c+	c #172127",
"d+	c #0D1215",
"e+	c #141C20",
"f+	c #18232A",
"g+	c #151E24",
"h+	c #10171B",
"i+	c #1E2B31",
"j+	c #162025",
"k+	c #1D2930",
"l+	c #040506",
"                                                                                                                                                                                                        ",
"                                                                                                                              . . . . . . . .                                                           ",
"                                                                                                                            . . . . . . . . . . .                                                       ",
"                                                                                                                        . . . . . + @ # $ . . . . .                                                     ",
"                                                                                                                      . . . . % & * = = - ; > . . . .                                                   ",
"                                                                                                                    . . . . , ' = = = = = = - ) . . . .                                                 ",
"                                                                                                                  . . . . ! ~ = = = = = = = = = { . . . .                                               ",
"                                                                                                                . . . . ] ~ = = = = = = = = = = = { . . . .                                             ",
"                                                                                                              . . . . ^ / ( = = = = = = = = = = = = { . . . .                                           ",
"                                                                                                            . . . . ^ _ : < ( = = = = = = = = = = = = [ . . . .                                         ",
"                                                                                                          . . . . . } | : : < ( = = = = = = = = = = = = { . . . .                                       ",
"                                                                                                        . . . . . . . } | : : < ( = = = = = = = = = = = = { . . . .                                     ",
"                                                                                                      . . . . 1 2 3 . . 4 5 : : < ( = = = = = = = = = = = = [ . . . .                                   ",
"                                                                                                    . . . . 6 7 8 9 0 . . } | : : < ( = = = = = = = = = = = = { . . . .                                 ",
"                                                                                                  . . . . 6 7 8 8 8 9 0 . . } | : : < ( = = = = = = = = = = = = { . . . .                               ",
"                                                                                                . . . . 6 7 8 8 8 8 8 9 0 . . } | : : < ( = = = = = = = = = = = = a . . . .                             ",
"                                                                                              . . . . 6 7 8 8 8 8 8 8 8 9 0 . . } | : : < ( = = = = = = = = = = = = a . . . .                           ",
"                                                                                            . . . . 6 7 8 8 8 8 8 8 8 8 8 9 0 . . } | : : < ( = = = = = = = = = = = = a . . . .                         ",
"                                                                                          . . . . 6 7 8 8 8 8 8 8 8 8 8 8 8 9 0 . . } | : : < ( = = = = = = = = = = = = a . . . .                       ",
"                                                                                        . . . . 6 7 8 8 8 8 8 8 8 8 8 8 8 8 8 9 0 . . } | : : < ( = = = = = = = = = = = = a . . . .                     ",
"                                                                                      . . . . 1 b 8 8 8 8 8 8 8 8 8 8 8 8 8 8 8 c 3 . . 4 5 : : < ( = = = = = = = = = = = = [ . . . .                   ",
"                                                                                    . . . . 1 b 8 8 8 8 8 8 8 8 8 8 8 8 8 8 8 8 8 d 3 . . 4 5 : : < ( = = = = = = = = = = = = [ . . . .                 ",
"                                                                                  . . . . 1 b 8 8 8 8 8 8 8 8 8 8 8 8 8 8 8 8 8 8 8 d 3 . . 4 5 : : < ( = = = = = = = e = = = = f . . .                 ",
"                                                                                . . . . 1 b 8 8 8 8 8 8 8 8 8 8 8 8 8 8 8 8 8 8 8 8 8 d 3 . . 4 5 : : < ( = = = = = g h i = = = = j . . .               ",
"                                                                              . . . . 1 b 8 8 8 8 8 8 8 8 8 8 8 8 8 8 8 8 8 8 8 8 8 8 8 d 3 . . 4 5 : : < k = = = g h . . i = = = l m . .               ",
"                                                                            . . . . 1 b 8 8 8 8 8 8 8 8 8 8 8 8 8 8 8 8 8 8 8 8 8 8 8 8 8 d 3 . . 4 5 : : < n = = o p . . . q = = = r . .               ",
"                                                                          . . . . 6 7 8 8 8 8 8 8 8 8 8 8 8 8 8 8 8 8 8 8 8 8 8 8 8 8 8 8 8 9 s . . } | : : t = = = u p . . . v = = w . . .             ",
"                                                                        . . . . 1 b 8 8 8 8 8 8 8 8 8 8 8 8 8 8 8 8 8 8 8 8 8 8 8 8 8 8 8 8 8 d 3 . . 4 5 : : x = = y z . . . A = = ) . . .             ",
"                                                                      . . . . 1 b 8 8 8 8 8 8 8 8 8 8 8 8 8 8 8 8 8 8 8 8 8 8 8 8 8 8 8 8 8 8 8 d 3 . . 4 5 : B = y C . . . D e = = E . . .             ",
"                                                                    . . . . F b 8 8 8 8 8 8 8 8 8 8 8 8 8 8 8 8 8 8 8 8 8 8 8 8 8 8 8 8 8 8 8 8 8 d 3 . . 4 5 G = H I . . D J = = K L . .               ",
"                                                                    . . . . M 8 8 8 8 8 8 8 8 8 8 8 8 8 8 8 8 8 8 8 8 8 8 8 8 8 8 8 8 8 8 8 8 8 8 8 d 3 . . 4 N = = O P Q R = = = w . . .               ",
"                                                                  . . . . . S T 8 8 8 8 8 8 8 8 8 8 8 8 8 8 8 8 8 8 8 8 8 8 8 8 8 8 8 8 8 8 8 8 8 8 8 d 3 . . $ U = = V J = = = W X . .                 ",
"                                                                . . . Y Z . . S T 8 8 8 8 8 8 8 8 8 8 8 8 8 8 8 8 8 8 8 8 8 8 8 8 8 8 8 8 8 8 8 8 8 8 8 d 3 . . ` U = = = = =  .... . .                 ",
"                                                              . . . +.@.#.Z . . S $.8 8 8 8 8 8 8 8 8 8 8 8 8 8 8 8 8 8 8 8 8 8 8 8 8 8 8 8 8 8 8 8 8 8 %.&.. . . ` U = = =  .... . .                   ",
"                                                            . . . $ *.: : =.-.. ;.>.8 8 8 8 8 8 8 8 8 8 8 8 8 8 8 8 8 8 8 8 8 8 8 8 8 8 8 8 8 8 8 8 8 ,.'.. . . . . ).!.=  .... . .                     ",
"                                                          . . . ~.{.: : : : #.].^./.8 8 8 8 8 8 8 8 8 8 8 8 8 8 8 8 8 8 8 8 8 8 8 8 8 8 8 8 8 8 8 8 %.(.. . . _.S . . ` :.... . .                       ",
"                                                        . . . <.[.: : : : : : : : }./.8 |.8 8 8 8 8 8 8 8 8 8 8 8 8 8 8 8 8 8 8 8 8 8 8 8 8 8 8 8 %.1.. . . 2.3.4.S . . . . . .                         ",
"                                                      . . . 5.6.: : : : : : : : : : }.7.8.9.8 8 8 8 8 8 8 8 8 8 8 8 8 8 8 8 8 8 8 8 8 8 8 8 8 8 ,.'.. . . 0.a.b.b.c.d.. . . .                           ",
"                                                    . . . e.f.: : : : : : : : : : : g.h.. . 9.8 8 8 8 8 8 8 8 8 8 8 8 8 8 8 8 8 8 8 8 8 8 8 8 ,.'.. . . 0.a.b.b.b.i.j.. . .                             ",
"                                                  . . . k.l.: : : : m.n.n.o.: : : : p.+.. . S T 8 8 8 8 8 8 8 8 8 8 8 8 8 8 8 8 8 8 8 8 8 8 %.1.. . . 2.3.b.b.b.i.j.. . .                               ",
"                                                . . . X q.: : : : : r.. . s.: : : : : =.-.. . . 9.8 8 8 8 8 8 8 8 8 8 8 8 8 8 8 8 8 8 8 8 ,.'.. . . 0.a.b.b.b.i.j.. . .                                 ",
"                                              . . . t.u.: : : : : : r.. . s.: : : : : : =.-.. . . 9.8 8 8 8 8 8 8 8 8 8 8 8 8 8 8 8 8 8 ,.'.. . . 0.a.b.b.b.i.j.. . .                                   ",
"                                            . . . . v.: : : : w.x.x.y.z.z.A.: : : : : : : =.-.. . . 9.8 8 8 8 8 8 8 8 8 8 8 8 8 8 8 8 ,.'.. . . 0.a.b.b.b.i.j.. . .                                     ",
"                                          . . . . B.: : : : : C.. . u.: : : : : : : : : : : =.-.. . . 9.8 8 8 8 8 8 8 8 8 8 8 8 8 8 ,.'.. . . 0.a.b.b.b.i.j.. . .                                       ",
"                                        . . . . D.: : : : : : C.. . u.: : : : : : : : : : : : #.+.. . S T 8 8 8 8 8 8 8 8 8 8 8 8 %.1.. . . 2.3.b.b.b.i.j.. . .                                         ",
"                                      . . . . E.F.: : : : : : G.H.H.I.: : : : : : : : : : : : : #.+.. . S T 8 8 8 8 8 8 8 8 8 8 %.1.. . . 2.3.b.b.b.i.j.. . .                                           ",
"                                      . . . J.K.: : : : : : : : : : : : : : : : : : : : : : : : : #.+.. . S T 8 8 8 8 8 8 8 8 %.1.. . . 2.3.b.b.b.i.j.. . .                                             ",
"                                    . . . L.M.: : : : : : : : : : : : : : : : : : : : : : : : : : : #.+.. . S T 8 8 8 8 8 8 N.O.. . . 2.P.b.b.b.i.j.. . .                                               ",
"                                    . . . Q.: : : : : : : : : : : : : : : : : : : : : : : : : : : : : #.+.. . S T 8 8 8 8 8 8 R.S.. 2.3.b.b.b.i.j.. . .                                                 ",
"                                  . . . T.: : : : : : : : : : : : : : : : : : : : : : : : : : : : : : : #.+.. . S T 8 8 8 8 U.V.W.2.3.b.b.b.i.j.. . .                                                   ",
"                                  . . . B.: : : : : : : : : : : : : : : : : : : : : : : : : : : : : : : : #.+.. . S T 8 8 |.X.b.b.Y.b.b.b.i.j.. . .                                                     ",
"                                  . . . Z.: : : : : : : : : : : : : : : : : : : : : : : : : : : : : : : : : #.+.. . S T |.`.b.b.b.b.b.b.i.j.. . .                                                       ",
"                                  . . .  +: : : : : : : : : : : : : : : : : : : : : : : : : : : : : : : : : : #.+.. . S .+b.b.b.b.b.b.i.j.. . .                                                         ",
"                                  . . . ++: : : : : : : : : : : : : : : : : : : : : : : : : : : : : : : : : : : #.+.. . S.@+b.b.b.b.i.j.. . .                                                           ",
"                #+$+              . . . %+: : : : : : : : : : : : : : : : : : : : : : : : : : : : : : : : : : : : #.&+. . S.@+b.b.i.j.. . .                                                             ",
"              *+. t.=+              . . -+;+: : : : : : : : : : : : : : : : : : : : : : : : : : : : : : : : : : : >+,+'+. . S.@+i.j.. . .                                                               ",
"              )+. . !+$+            . . . ~+F.: : : : : : : : : : : : : : : : : : : : : : : : : : : : : : : : : >+= = ,+'+. . S.s . . .                                                                 ",
"                {+. . t.=+            . . . y.: : : : : : : : : : : : : : : : : : : : : : : : : : : : : : : : >+= = = = ,+'+. . . . .           ]+. ^+      /+. (+                                      ",
"                  )+. . !+            . . . . J._+: : : : : : : : : : : : : : : : : : : : : : : : : : : : : >+= = = = = = :+. . . .           <+. . . [+  }+. . . |+                                    ",
"                    {+. 1+              . . . . 2+3+4+;+5+_ _ _ _ _ _ _ _ _ _ _ _ _ _ _ _ _ _ _ _ _ _ _ _ 6+7+7+7+7+7+7+8+... . .           9+. . . . . 0+. . . . . a+                                  ",
"                      b+    0+. .         . . . . . . . . . . . . . . . . . . . . . . . . . . . . . . . . . . . . . . . . . . .           c+. . . d+. . . . . 1+t.. . . . . . . . . . .                 ",
"                            0+. .             . . . . . . . . . . . . . . . . . . . . . . . . . . . . . . . . . . . . . . . .               e+. f+  g+. . . h+  =+t.. . . . . . . . . .                 ",
"                            0+. .                 . . . . . . . . . . . . . . . . . . . . . . . . . . . . . . . . . . . . .                   i+      j+-+/+      k+l+. . . . . . . . .                 ",
"                                                                                                                                                                                                        ",
"                                                                                                                                                                                                        ",
"                                                                                                                                                                                                        ",
"      ]+a+a+a+a+a+a+a+a+a+a+a+a+a+a+a+a+a+a+a+a+a+a+a+a+a+a+a+a+a+a+a+a+a+a+a+a+a+a+a+a+a+a+a+a+a+a+a+a+a+a+a+a+a+a+a+a+a+a+a+a+a+a+a+a+a+a+a+a+a+a+a+a+a+a+a+a+a+a+a+a+a+a+a+a+a+a+a+a+a+a+a+a+]+      ",
"      {+. . . . . . . . . . . . . . . . . . . . . . . . . . . . . . . . . . . . . . . . . . . . . . . . . . . . . . . . . . . . . . . . . . . . . . . . . . . . . . . . . . . . . . . . . . . . {+      ",
"      {+. . . . . . . . . . . . . . . . . . . . . . . . . . . . . . . . . . . . . . . . . . . . . . . . . . . . . . . . . . . . . . . . . . . . . . . . . . . . . . . . . . . . . . . . . . . . {+      ",
"                                                                                                                                                                                                        "};
